<?xml version="1.0" standalone="no"?>
<!DOCTYPE svg PUBLIC "-//W3C//DTD SVG 20010904//EN"
 "http://www.w3.org/TR/2001/REC-SVG-20010904/DTD/svg10.dtd">
<svg version="1.0" xmlns="http://www.w3.org/2000/svg"
 width="608.000000pt" height="608.000000pt" viewBox="0 0 608.000000 608.000000"
 preserveAspectRatio="xMidYMid meet">
<metadata>
Created by potrace 1.11, written by Peter Selinger 2001-2013
</metadata>
<g transform="translate(0.000000,608.000000) scale(0.100000,-0.100000)"
fill="#000000" stroke="none">
<path d="M3008 6073 c-10 -2 -18 -9 -18 -14 0 -5 -11 -14 -25 -19 -14 -5 -25
-14 -25 -20 0 -5 -5 -10 -11 -10 -6 0 -24 -9 -40 -21 -16 -11 -29 -17 -29 -12
0 4 -5 0 -11 -10 -6 -9 -14 -15 -18 -13 -4 3 -17 -2 -28 -12 -22 -20 -51 -39
-73 -49 -8 -4 -17 -9 -20 -13 -3 -3 -52 -35 -110 -69 -58 -35 -107 -66 -110
-70 -3 -3 -18 -13 -35 -21 -16 -8 -39 -23 -49 -32 -11 -10 -25 -18 -32 -18 -7
0 -20 -7 -28 -16 -9 -8 -16 -12 -16 -7 0 4 -4 3 -8 -3 -9 -14 -119 -84 -132
-84 -6 0 -10 -4 -10 -10 0 -5 -5 -10 -10 -10 -6 0 -33 -16 -60 -35 -27 -19
-52 -35 -54 -35 -3 0 -47 -27 -98 -60 -51 -32 -120 -76 -154 -96 l-60 -36 0
-806 1 -805 73 -46 c39 -25 94 -59 122 -76 27 -16 50 -33 50 -36 0 -4 10 -9
23 -13 12 -3 32 -14 45 -26 12 -11 24 -20 27 -20 3 0 18 -7 33 -17 104 -65
149 -94 165 -107 9 -9 17 -13 17 -10 0 3 14 -3 30 -13 17 -9 30 -21 30 -25 0
-4 5 -8 11 -8 6 0 30 -13 54 -30 24 -17 48 -30 54 -30 6 0 11 -3 11 -7 0 -5
18 -17 40 -27 22 -11 40 -23 40 -28 0 -5 5 -6 10 -3 6 3 10 2 10 -3 0 -7 99
-69 175 -110 14 -7 25 -18 25 -23 0 -6 5 -7 10 -4 6 3 10 2 10 -2 0 -5 19 -19
43 -31 50 -26 76 -42 95 -59 7 -7 17 -13 22 -13 5 0 16 -7 24 -16 24 -23 67
-24 90 -2 12 10 40 29 63 40 24 12 43 26 43 31 0 6 3 8 6 5 5 -5 55 23 89 50
23 18 145 92 145 88 0 -3 12 6 27 20 14 13 28 22 31 20 2 -3 13 3 23 13 11 10
32 24 47 32 28 14 176 107 226 142 16 11 36 20 43 20 7 0 13 4 13 9 0 5 5 6
10 3 6 -3 10 1 10 10 0 9 4 14 8 11 5 -3 18 3 28 12 10 10 57 40 104 67 47 27
91 55 98 62 6 6 21 15 32 18 11 3 20 10 20 15 0 5 10 12 22 16 26 8 101 55
106 67 2 4 9 7 16 7 7 0 20 8 29 18 16 17 17 88 17 809 0 435 -3 798 -6 807
-3 9 -12 16 -20 16 -8 0 -14 4 -14 9 0 5 -13 14 -29 21 -16 6 -37 19 -48 28
-18 16 -42 31 -88 56 -36 20 -80 50 -87 61 -4 5 -8 7 -8 2 0 -4 -22 9 -50 28
-27 19 -54 35 -60 35 -5 0 -10 5 -10 10 0 6 -5 10 -11 10 -7 0 -36 16 -65 35
-29 19 -55 35 -58 35 -3 0 -17 9 -30 21 -13 12 -27 21 -30 20 -3 -1 -29 15
-56 34 -27 19 -53 35 -58 35 -5 0 -18 9 -30 20 -12 11 -23 20 -24 18 -2 -1
-21 10 -43 24 -22 14 -75 47 -119 74 -43 27 -95 59 -115 72 -20 13 -44 25 -53
29 -10 3 -18 9 -18 14 0 5 -7 9 -15 9 -8 0 -15 5 -15 10 0 6 -4 10 -9 10 -6 0
-30 13 -53 29 -46 31 -82 42 -110 34z m66 -242 c19 -11 54 -33 77 -48 23 -15
54 -34 68 -42 14 -8 29 -19 33 -25 5 -6 8 -7 8 -1 0 6 3 6 8 0 4 -6 30 -24 57
-40 28 -15 52 -31 55 -34 8 -9 42 -30 68 -41 12 -5 22 -14 22 -20 0 -6 4 -9 9
-5 5 3 16 -2 24 -10 9 -8 20 -15 26 -15 6 0 11 -4 11 -10 0 -5 5 -10 10 -10
12 0 92 -51 102 -65 5 -7 8 -7 8 0 0 6 3 6 8 0 7 -10 62 -49 72 -50 14 -3 70
-41 70 -48 0 -5 5 -5 10 -2 6 3 10 1 10 -4 0 -6 7 -11 15 -11 8 0 15 -3 15 -7
0 -5 10 -13 23 -19 30 -15 161 -95 167 -103 3 -3 22 -15 43 -26 21 -11 40 -23
42 -26 4 -5 8 -1090 6 -1325 -1 -63 -3 -72 -23 -82 -24 -12 -26 -14 -121 -75
-32 -20 -60 -37 -63 -37 -2 0 -27 -16 -54 -35 -27 -19 -53 -36 -57 -37 -21 -5
-73 -41 -73 -51 0 -6 -3 -7 -6 -4 -4 4 -19 -2 -33 -12 -14 -10 -62 -40 -106
-66 -44 -27 -82 -51 -85 -55 -3 -4 -12 -10 -20 -14 -8 -3 -38 -21 -67 -39
-168 -104 -261 -162 -282 -176 -13 -9 -36 -24 -50 -33 -56 -38 -63 -38 -123 3
-31 22 -62 39 -67 39 -6 0 -11 3 -11 8 0 4 -25 20 -55 37 -30 16 -55 33 -55
38 0 4 -4 6 -8 3 -5 -3 -18 3 -28 12 -10 10 -62 44 -114 76 -174 106 -205 125
-217 135 -7 6 -15 11 -18 11 -5 0 -113 68 -177 112 -15 10 -39 23 -53 28 -14
5 -25 14 -25 20 0 5 -4 10 -9 10 -12 0 -145 82 -149 92 -2 5 -7 6 -12 3 -5 -3
-15 2 -23 10 -13 13 -15 106 -16 697 0 376 2 691 5 701 3 9 10 17 15 17 11 0
70 40 80 53 3 5 8 7 10 6 2 -2 15 4 29 13 14 9 51 32 83 52 31 20 62 36 67 36
6 0 10 5 10 10 0 6 7 10 15 10 8 0 15 5 15 10 0 6 7 10 15 10 8 0 15 5 15 11
0 5 5 7 10 4 6 -3 10 -2 10 3 0 4 15 16 33 26 62 33 160 97 165 109 2 4 7 5
12 2 4 -2 18 4 30 15 13 11 29 20 37 20 7 0 13 4 13 9 0 5 14 14 30 21 17 7
30 16 30 20 0 4 8 10 18 14 20 6 50 25 70 44 7 6 18 12 23 12 6 0 17 6 24 13
26 22 41 32 55 35 8 2 17 8 18 13 2 5 8 9 13 9 6 0 15 5 22 10 11 10 119 79
124 80 1 0 18 -9 37 -19z"/>
<path d="M1740 3579 c0 -5 -5 -9 -10 -9 -9 0 -116 -66 -130 -80 -8 -8 -63 -39
-92 -52 -16 -7 -28 -16 -28 -20 0 -4 -6 -8 -14 -8 -8 0 -16 -3 -18 -7 -6 -14
-67 -53 -83 -53 -8 0 -15 -4 -15 -10 0 -5 -22 -21 -48 -34 -27 -13 -54 -31
-61 -40 -7 -9 -17 -13 -22 -10 -5 3 -9 1 -9 -4 0 -4 -19 -19 -42 -32 -24 -13
-91 -54 -150 -92 -59 -37 -111 -68 -116 -68 -6 0 -13 -7 -16 -16 -4 -9 -9 -14
-13 -10 -3 3 -21 -5 -39 -19 -18 -14 -37 -25 -43 -25 -6 0 -11 -4 -11 -8 0 -5
-15 -15 -32 -24 -18 -8 -78 -44 -133 -79 -56 -35 -110 -69 -120 -76 -11 -6
-68 -42 -126 -78 l-107 -67 0 -923 0 -923 24 -21 c13 -12 29 -21 34 -21 6 0
10 -4 10 -10 0 -5 7 -10 15 -10 9 0 25 -9 37 -20 12 -11 28 -20 35 -20 7 0 13
-4 13 -10 0 -5 4 -10 9 -10 8 0 204 -119 261 -159 14 -10 45 -28 70 -42 25
-13 54 -32 64 -41 11 -10 32 -24 48 -30 15 -7 28 -16 28 -20 0 -5 7 -8 15 -8
8 0 15 -3 15 -8 0 -4 15 -13 33 -21 17 -8 34 -17 37 -21 7 -8 109 -70 117 -70
3 0 17 -12 31 -27 14 -16 28 -27 31 -26 11 5 41 -8 41 -18 0 -5 4 -9 9 -9 5 0
49 -25 98 -56 48 -30 97 -61 108 -67 11 -7 22 -14 25 -17 15 -15 47 -26 60
-21 24 9 170 105 170 111 0 3 -30 24 -67 45 -67 40 -109 66 -154 96 -13 9 -85
53 -159 99 -74 45 -147 91 -162 101 -15 11 -32 19 -38 19 -5 0 -10 5 -10 12 0
6 -3 8 -6 5 -4 -4 -15 3 -25 15 -11 11 -19 17 -19 13 0 -4 -8 -1 -17 7 -10 8
-25 18 -33 22 -22 10 -52 28 -87 54 -17 12 -36 22 -41 22 -6 0 -12 3 -14 8 -3
7 -111 76 -160 101 -16 8 -28 18 -28 23 0 4 -5 8 -11 8 -6 0 -30 13 -54 30
-24 16 -48 30 -54 30 -6 0 -11 5 -11 10 0 6 -5 10 -11 10 -17 0 -80 46 -72 53
3 4 2 7 -3 7 -5 0 -9 31 -9 69 0 39 4 67 9 63 5 -3 6 0 2 7 -11 17 -14 161 -4
155 4 -3 4 5 0 18 -9 27 -8 70 2 86 3 6 2 13 -2 16 -8 5 -9 29 -2 61 1 6 1 12
0 15 -7 17 -4 88 4 83 5 -4 6 -1 2 6 -12 19 -14 121 -3 114 6 -4 7 -1 3 6 -11
17 -14 121 -4 115 4 -3 4 6 -1 19 -5 13 -5 30 -1 37 5 8 6 19 2 25 -9 14 -9
37 0 56 4 9 4 19 1 23 -11 10 -10 125 1 119 5 -4 6 -1 2 6 -12 19 -14 161 -2
154 5 -4 6 -1 2 6 -12 19 -14 121 -3 114 6 -4 7 -1 3 6 -12 19 -14 121 -3 114
6 -4 7 -1 2 7 -5 7 -9 34 -9 59 -1 45 11 71 33 71 6 0 11 3 11 8 0 4 10 12 23
18 25 12 207 126 249 155 15 10 32 19 38 19 5 0 10 5 10 10 0 6 7 10 15 10 8
0 15 4 15 8 0 5 16 16 35 25 19 9 69 39 110 66 41 28 75 47 75 43 0 -4 5 1 11
11 5 9 14 17 20 17 5 0 36 17 67 37 31 20 60 36 65 35 4 -1 7 2 7 6 0 5 24 22
53 37 28 16 58 35 65 42 7 7 20 13 28 13 8 0 14 4 14 9 0 5 14 14 30 21 17 7
30 15 30 19 0 4 17 15 38 26 20 11 75 44 122 74 47 29 95 60 108 68 24 15 17
18 250 -129 15 -10 45 -27 66 -39 22 -12 46 -27 53 -35 7 -7 22 -16 33 -19 11
-3 20 -11 20 -16 0 -5 5 -9 11 -9 6 0 31 -13 56 -30 24 -16 46 -30 49 -30 8 0
119 -75 122 -82 2 -5 8 -8 13 -8 9 0 219 -129 229 -140 3 -4 20 -12 38 -19 17
-8 32 -17 32 -22 0 -4 10 -11 22 -15 12 -3 33 -17 47 -30 13 -12 28 -21 33
-18 4 3 8 1 8 -4 0 -5 18 -17 40 -27 22 -10 40 -21 40 -24 0 -3 18 -15 40 -25
22 -11 40 -23 40 -28 0 -5 5 -6 10 -3 6 3 10 1 10 -4 0 -6 3 -11 8 -11 4 0 7
51 7 113 -1 100 -3 115 -21 132 -11 11 -27 21 -35 23 -7 2 -16 7 -19 10 -6 9
-36 28 -77 49 -18 9 -33 20 -33 25 0 4 -4 8 -9 8 -12 0 -145 82 -149 92 -2 5
-8 8 -12 8 -12 0 -143 82 -152 95 -4 5 -8 7 -8 3 0 -4 -29 13 -65 37 -36 25
-68 45 -72 45 -3 0 -21 11 -40 26 -18 14 -33 22 -33 19 0 -4 -18 7 -39 24 -21
17 -42 31 -45 31 -4 0 -30 15 -59 34 -187 120 -247 156 -256 156 -6 0 -11 4
-11 10 0 5 -11 12 -25 16 -14 3 -22 10 -19 15 3 5 -2 9 -10 9 -9 0 -16 4 -16
8 0 4 -13 13 -30 19 -16 6 -30 7 -30 2z"/>
<path d="M4315 3576 c-11 -6 -34 -21 -52 -33 -17 -13 -36 -23 -42 -23 -6 0
-11 -4 -11 -8 0 -5 -18 -17 -40 -27 -22 -10 -40 -22 -40 -26 0 -4 -10 -11 -22
-15 -12 -3 -28 -13 -36 -20 -7 -8 -18 -12 -23 -9 -5 4 -9 2 -9 -4 0 -6 -17
-20 -37 -31 -38 -20 -67 -38 -87 -53 -45 -32 -103 -67 -113 -67 -7 0 -13 -4
-13 -10 0 -5 -7 -10 -15 -10 -8 0 -15 -4 -15 -10 0 -5 -11 -12 -25 -16 -14 -3
-25 -9 -25 -14 0 -4 -20 -17 -45 -30 -25 -13 -45 -27 -45 -32 0 -5 -4 -6 -10
-3 -5 3 -10 2 -10 -3 0 -4 -19 -19 -42 -31 -64 -34 -102 -55 -108 -61 -9 -9
-150 -100 -154 -100 -3 0 -20 -10 -38 -22 -19 -13 -66 -43 -106 -68 -42 -26
-70 -50 -67 -57 2 -7 1 -13 -3 -13 -11 0 -9 -84 3 -92 7 -5 7 -10 0 -15 -12
-9 -15 -94 -3 -87 4 3 8 -1 8 -8 0 -9 3 -10 8 -2 4 6 22 19 40 28 17 9 32 21
32 26 0 6 6 10 13 10 7 0 36 16 66 35 29 19 55 35 58 35 2 0 19 11 37 25 18
14 38 25 44 25 7 0 12 4 12 9 0 5 15 15 33 22 17 7 41 21 51 31 11 10 25 18
32 18 7 0 14 3 16 8 4 10 86 62 98 62 5 0 10 5 10 11 0 5 5 7 10 4 6 -3 10 -2
10 3 0 5 14 15 30 22 17 7 30 16 30 21 0 5 4 9 9 9 9 0 207 121 229 140 6 6
12 7 12 3 0 -4 4 -3 8 3 7 10 108 74 118 74 2 0 14 9 26 20 12 11 28 20 35 20
7 0 13 4 13 8 0 9 37 29 54 30 5 0 12 4 15 9 3 4 25 20 48 35 36 24 44 26 67
15 14 -7 26 -15 26 -19 0 -5 5 -8 10 -8 6 0 38 -18 71 -40 33 -22 65 -40 70
-40 5 0 9 -4 9 -9 0 -5 9 -13 20 -16 11 -3 60 -33 109 -66 50 -32 92 -59 95
-59 7 0 119 -71 126 -79 4 -5 34 -23 95 -55 11 -6 24 -17 28 -23 4 -7 16 -13
27 -13 10 0 20 -4 22 -9 2 -5 57 -42 123 -82 66 -40 129 -81 139 -91 11 -10
28 -18 38 -18 10 0 18 -4 18 -8 0 -5 19 -19 43 -32 23 -13 63 -39 90 -57 26
-18 47 -31 47 -28 0 6 15 -5 48 -35 16 -14 17 -78 17 -822 l0 -808 -37 -25
c-20 -14 -41 -25 -47 -25 -5 0 -11 -3 -13 -8 -4 -10 -296 -192 -309 -192 -5 0
-9 -4 -9 -8 0 -5 -31 -26 -70 -48 -38 -21 -70 -43 -70 -47 0 -5 -4 -6 -9 -3
-4 3 -18 -2 -29 -12 -48 -40 -58 -48 -67 -51 -33 -12 -55 -26 -55 -34 0 -6 -3
-7 -7 -4 -3 4 -13 1 -22 -7 -25 -21 -260 -166 -270 -166 -5 0 -11 -4 -13 -8
-1 -4 -49 -36 -105 -71 -57 -34 -106 -67 -109 -72 -3 -6 8 -15 25 -22 17 -6
31 -15 31 -19 0 -4 7 -8 15 -8 8 0 15 -4 15 -10 0 -5 7 -10 15 -10 8 0 15 -4
15 -10 0 -5 5 -10 12 -10 6 0 19 -7 28 -15 15 -14 22 -13 65 11 26 15 83 50
126 78 43 28 106 68 141 89 35 21 77 47 93 57 17 11 39 25 50 32 72 47 127 78
135 78 6 0 10 4 10 8 0 4 15 16 33 26 17 11 53 32 79 49 25 16 49 29 52 28 3
0 15 8 26 19 11 11 27 20 35 20 7 0 18 6 22 12 9 15 59 46 86 55 9 3 17 9 17
14 0 5 5 9 10 9 6 0 16 5 23 10 7 6 59 40 117 75 58 35 110 68 115 73 6 4 18
11 28 15 16 6 17 60 17 936 l0 930 -47 28 c-27 15 -49 31 -51 35 -2 4 -8 8
-14 8 -11 0 -100 59 -110 74 -4 6 -8 8 -8 4 0 -4 -28 11 -62 32 -35 22 -106
65 -158 97 -52 32 -96 61 -98 66 -2 4 -10 7 -18 7 -8 0 -14 5 -14 10 0 6 -7
10 -15 10 -8 0 -15 5 -15 10 0 6 -4 10 -10 10 -10 0 -141 77 -150 89 -6 7 -40
29 -60 38 -8 4 -40 23 -70 42 -30 19 -56 33 -57 30 -1 -2 -12 5 -25 17 -13 11
-63 45 -113 75 -49 29 -92 56 -95 60 -3 3 -23 17 -46 30 -132 78 -174 104
-174 111 0 4 -5 8 -11 8 -6 0 -23 8 -37 19 -22 15 -31 16 -47 7z"/>
</g>
</svg>
